<?xml version="1.0" encoding="UTF-8"?>
<svg version="1.1" viewBox="0 0 2048 2048" width="1280" height="1280" xmlns="http://www.w3.org/2000/svg">
<path transform="translate(841,412)" d="m0 0h16l21 6 26 11 31 16 19 11 24 14 60 36 21 13 17 10 40 24 27 16 15 9 26 16 15 9 21 13 15 10 16 11 14 10 17 14 14 14 7 11 4 11v16l-5 12-8 11-13 13-11 9-18 13-19 13-17 11-26 16-28 17-32 19-22 13-20 12-16 10-4 2-1-1-1-108-2-8-3-5-2-1-10 1-19 9-40 24-23 14-17 12-5 5-1 8-1 124-9 6-21 11-24 11-17 6-14 3h-19l-10-4-5-4-7-10-5-11-5-21-3-24-3-44-1-79v-54l1-214 2-31 3-31 5-23 5-12 8-11 6-5zm110 222-4 3-3 11-1 8v94l2 16 4 8 4 3 7-1 12-5 20-11 28-17 20-12 12-8 10-8 5-6 1-6-3-6-7-7-20-13-22-13-35-21-15-8-3-1z" fill="#FEC908"/>
<path transform="translate(1295,1016)" d="m0 0h89l1 1 1 417 6 4h7l4-5v-377l1-40h91l1 1v434l-2 12-5 14-7 11-9 11-8 7-11 7-10 5-14 4-17 2h-38l-16-2-16-5-11-6-14-11-8-9-8-13-6-16-1-5-1-115v-246z" fill="#0796B6"/>
<path transform="translate(1815,1016)" d="m0 0h89l1 1 1 417 6 4h7l4-5v-377l1-40h91l1 1v431l-2 15-5 14-7 11-9 11-8 7-11 7-10 5-14 4-17 2h-38l-16-2-16-5-11-6-14-11-8-9-9-15-5-14-1-6z" fill="#0796B6"/>
<path transform="translate(1628,1015)" d="m0 0h55l17 4 15 8 10 8 10 10 9 14 5 12 3 16v64l-11 8-18 11-24 15-21 13-11 7h-2l-1-105h-19v140h107v208l-2 14-5 14-9 15-12 13-13 9-13 6-15 4-9 1h-40l-17-3-15-6-11-7-12-10-8-10-8-15-4-13-1-5v-373l4-15 8-16 9-12h2l1-3 12-9 16-8 11-3zm16 252 1 168 8 3 7-1 4-3 1-3v-137l-13-19-6-8z" fill="#FD9A3A"/>
<path transform="translate(278,1016)" d="m0 0h95l3 16 10 69 15 104 1 17 4-20 18-121 8-53 2-11 1-1h94l1 3-10 60-7 43-12 73-19 117-10 60-9 55-11 66-4 25-1 1h-86l-2-5-20-120-61-372z" fill="#FD9A38"/>
<path transform="translate(822,1016)" d="m0 0h210l-2 6-9 17-9 16-13 24-13 23-3 4h-67v106h91l-2 5-9 16-7 14-13 23-12 23-6 9-1 1h-41v126h116l-2 6-15 28-7 12-6 12-10 18-8 14-2 1h-159l-1-1z" fill="#FC9A39"/>
<path transform="translate(805,704)" d="m0 0h138l1 46 2 16 4 8 3 2 7-1 12-5 20-11 28-17 20-12 12-8 10-8 4-5 2-5h239v9l-5 12-8 11-13 13-11 9-18 13-19 13-17 11-26 16-28 17-32 19-22 13-20 12-16 10-4 2-1-1-1-108-2-8-3-5-2-1-10 1-19 9-40 24-23 14-17 12-5 5-1 8-1 124-9 6-21 11-24 11-17 6-14 3h-19l-10-4-5-4-7-10-5-11-5-21-3-24-3-44-1-79v-54l1-38z" fill="#0896B6"/>
<path transform="translate(21,1016)" d="m0 0h248l1 2v90l-2 1h-76v409l-10 1h-83l-1-1v-409h-77l-1-1v-91z" fill="#FD9B3A"/>
<path transform="translate(541,1016)" d="m0 0h248l1 2v90l-1 1h-77v409l-62 1h-31l-1-1v-409h-78v-92z" fill="#FD9B3A"/>
<path transform="translate(1063,1016)" d="m0 0h92l1 1v412h124l-2 5-9 21-28 63-3 2h-175l-1-151v-180z" fill="#0896B6"/>
<path transform="translate(802,535)" d="m0 0 9 2 25 8 30 9 31 9 44 13 60 18 199 60 46 14 33 9 10 3 7 3 6 1 4 9 1 4v7h-239l-5-8-8-7-17-11-22-13-35-21-15-8-3-1h-12l-3 2-3 11-1 8-1 48-138 1-4 1v-152z" fill="#FD9A38"/>
<path transform="translate(1643,1282)" d="m0 0 2 1v152l8 2 7-1 3-2 1-3v-137l-7-11 92-1 2 1v175l-4 13-7 14-10 13-7 7-14 9-11 5-15 4-9 1h-40l-17-3-15-6-11-7-12-10-8-10-8-15-4-13-1-5v-171l2-1z" fill="#0796B6"/>
<path transform="translate(847,1302)" d="m0 0h70l-1 127h116l-2 6-15 28-7 12-6 12-10 18-8 14-2 1h-159l-1-1v-216z" fill="#0896B6"/>
<path transform="translate(1063,1016)" d="m0 0h92l1 1v411h-1v-145h-92v86h-1v-180z" fill="#FD9C3C"/>
<path transform="translate(1404,1016)" d="m0 0h91l1 1v434h-1v-168l-91 1v76h-1v-304z" fill="#FD9D3F"/>
<path transform="translate(1924,1016)" d="m0 0h91l1 1v431h-1v-165l-91 1v76h-1v-304z" fill="#FD9F42"/>
<path transform="translate(1295,1016)" d="m0 0h89l1 1v267h-91v-188z" fill="#FD9A38"/>
<path transform="translate(1815,1016)" d="m0 0h89l1 1v267l-90-1z" fill="#FD9A39"/>
<path transform="translate(330,1334)" d="m0 0 14 5 25 7 24 7 30 9 39 13 9 1-2 14-12 73-9 55-1 1h-86l-2-5-20-120-9-55z" fill="#FEC809"/>
<path transform="translate(942,832)" d="m0 0h1v126l-9 6-21 11-24 11-17 6-14 3h-19l-10-4-5-4-7-10-5-11-5-21-3-24-2-25v-23l26-7 33-10 61-18z" fill="#065A82"/>
<path transform="translate(2009,1430)" d="m0 0h6v29l-6 18-7 11-9 11-8 7-11 7-10 5-14 4-17 2h-38l-16-2-16-5-11-6-14-11-8-9-9-15-4-11v-4l17-4 8-3 16-3 19-3 27-2 2-1h9l14-3 9-1 21-5 27-4 11-1z" fill="#065A82"/>
<path transform="translate(184,1282)" d="m0 0 7 1v89l-1 3h-2l-2 5-7 10-3 4h-2l-2 4-10 10-8 7-10 9-14 11-17 13-13 9h-2v-174z" fill="#0695B5"/>
<path transform="translate(630,1302)" d="m0 0h81v150l-10-3-37-12-40-12-6-3v-119z" fill="#0796B6"/>
<path transform="translate(1298,725)" d="m0 0h2l-1 5-12 13-12 11-13 10-20 14-26 17-26 16-28 17-32 19-22 13-20 12-16 10-4 2-1-1 1-89 196-59 31-9z" fill="#075B82"/>
<path transform="translate(822,1016)" d="m0 0h210l-2 6-9 17-9 16-13 24-5 9-5-1-6-5-5-2-19-3-18-2-2-1-20-2-18-3-20-2-34-4h-25z" fill="#FEC808"/>
<path transform="translate(1628,1015)" d="m0 0h55l17 4 15 8 10 8 10 10 9 14 5 12 3 16v47h-1l-1-33-1-3-5-1-3-3-18-4-19-1-25-3-14-2-15-3-16-3-2-1-15-2-19-4-31-3-4-1 3-9 9-14 4-5h2l1-3 12-9 16-8 11-3z" fill="#FEC908"/>
<path transform="translate(190,1372)" d="m0 0h1l1 59v87l-10 1h-83l-1-1v-61l19-13 18-14 13-11 12-11 8-7 6-7h2l2-4 8-11 2-4h2z" fill="#FEC808"/>
<path transform="translate(1815,1016)" d="m0 0h89l1 1v265h-1v-158l-5 1-3-9-14-3-27-1-8-2-10-1h-13l-7 4h-2z" fill="#FEC909"/>
<path transform="translate(326,1301)" d="m0 0 157 1-1 10-10 60-1 4h-9l-21-7-11-4-17-5-20-6-24-7-25-7-12-4-3-3-4-25v-6z" fill="#0796B6"/>
<path transform="translate(618,1422)" d="m0 0 9 3 50 15 32 11 2 3 1 64-62 1h-31l-1-1z" fill="#FEC808"/>
<path transform="translate(1924,1039)" d="m0 0 11 4 6 3 7 3 2 2 5 2 11 8 17 9 22 11 9 4 1 3v43l-1 14-1-4-6-1-3-5v-2l-11-2-31-2-19-3h-13l-4 2-1-1-1-7z" fill="#FFC908"/>
<path transform="translate(1739,1471)" d="m0 0 6 1-1 6-9 14-11 12-13 9-13 6-15 4-9 1h-40l-17-3-15-6-11-7-12-10-1-3h12l16-4 29-6 17-3 26-4 16-2 18-3 24-1z" fill="#085C83"/>
<path transform="translate(1924,1016)" d="m0 0h91v72l-1-3-6-1-6-4-10-4-6-4-16-8-14-9-2-2-5-2-4-3-8-3-13-6z" fill="#FD9B38"/>
<path transform="translate(541,1016)" d="m0 0h248l1 2v31l-1 7h-5l-4-6-5-2-18-2-20-1-26-3-21-3-11-1-13-3-22-7-19-4-20-2-9-2h-4v-2l-51-1z" fill="#FFC908"/>
<path transform="translate(20,1050)" d="m0 0 1 4 6 1 18 10 23 13 21 12 5 4 8 5 4 5-7-2-10-7-9-3 11 7 5 4 14 7 3 4 1 3 10 8 2 1 4 7v3l-19 1-6-1-2 4-3 2-2 4v-37h-77l-1-1z" fill="#FEC808"/>
<path transform="translate(1404,1016)" d="m0 0h91l1 1v42l-2 12h-1v-7l-4-1-4-7v-2l-21-2h-13l-29-3h-16l-2-1z" fill="#FEC808"/>
<path transform="translate(1295,1016)" d="m0 0h89l1 1v265h-1l-1-230-4-1-4-7-10-5-4-1-16-1-20-3-11-3-8-1-6 3-5-2z" fill="#FEC808"/>
<path transform="translate(822,1486)" d="m0 0 6 2 17 7 32 10 32 8 23 4 9 1 41 1v1h-159l-1-1z" fill="#FECB1D"/>
<path transform="translate(2008,1472)" d="m0 0h2l-2 6-6 10-9 11-8 7-11 7-10 5-14 4-17 2h-38v-1l22-1 29-11 19-10 15-8 14-9 9-7z" fill="#FEC808"/>
<path transform="translate(133,1419)" d="m0 0h5l4 2-1 2 2 1-10 9-12 9-18 13-5 2v-33l11-1 14-3h7z" fill="#065B83"/>
<path transform="translate(2008,1472)" d="m0 0h2l-2 6-3 3h-2l-10 9-4 2-5 2-5 3h-2v2l-10 6-16 8-5 1v2l-8 2-5 3 4 2-4 1h-38v-1l22-1 29-11 19-10 15-8 14-9 9-7z" fill="#FDA753"/>
<path transform="translate(910,1514)" d="m0 0 10 1 21 3v1h-28l-3-3z" fill="#FD9A38"/>
<path transform="translate(2008,1472)" d="m0 0h2l-2 6-3 3h-2l-10 9h-3l2-4 11-9z" fill="#FD9B37"/>
<path transform="translate(160,1408)" d="m0 0 2 1-11 11-6 5-3-1 11-9z" fill="#FDAB26"/>
<path transform="translate(137,1126)" d="m0 0 5 2 3 2 1 4-4-1-2-1v-2h-2z" fill="#FEC709"/>
<path transform="translate(2009,1472)" d="m0 0 1 2-4 7h-3-3z" fill="#FD9D3F"/>
</svg>
