<?xml version="1.0" standalone="no"?>
<!DOCTYPE svg PUBLIC "-//W3C//DTD SVG 20010904//EN"
 "http://www.w3.org/TR/2001/REC-SVG-20010904/DTD/svg10.dtd">
<svg version="1.0" xmlns="http://www.w3.org/2000/svg"
 width="50.000000pt" height="50.000000pt" viewBox="0 0 50.000000 50.000000"
 preserveAspectRatio="xMidYMid meet">

<g transform="translate(0.000000,50.000000) scale(0.100000,-0.100000)"
fill="#000000" stroke="none">
<path d="M260 496 c0 -14 92 -57 117 -54 28 3 28 3 -12 24 -40 22 -105 40
-105 30z"/>
<path d="M145 473 c-88 -46 -139 -127 -139 -223 0 -199 218 -314 385 -203 73
48 120 156 104 239 l-7 39 -20 -40 c-25 -49 -73 -101 -111 -122 -35 -18 -40
-14 -44 37 -4 44 8 51 39 23 15 -14 18 -14 18 -1 0 17 -31 48 -48 48 -6 0 -18
14 -27 30 -18 34 -35 37 -76 13 -15 -9 -32 -14 -36 -10 -7 8 10 139 22 170 9
22 -18 22 -60 0z"/>
<path d="M230 371 c0 -19 64 -29 74 -12 4 5 -3 7 -13 4 -10 -3 -28 0 -40 6
-12 7 -21 8 -21 2z"/>
<path d="M365 338 c9 -22 44 -33 58 -19 8 8 4 11 -14 11 -14 0 -31 6 -38 13
-10 10 -11 9 -6 -5z"/>
</g>
</svg>
